<svg version="1" xmlns="http://www.w3.org/2000/svg" width="480" height="480" viewBox="0 0 360.000000 360.000000"><path d="M142 68v14h5.5c27 0 63.3 10 88.1 24.1 47.4 27.2 76.6 70.5 81.6 121l1.1 11.9h27.5l-.4-6.8c-2.4-38.8-14.4-70.7-37.9-100.7-7.2-9.1-22-24-31.5-31.6-24.2-19.5-57.9-34.9-90-41.3-12.1-2.4-30.9-4.6-39.7-4.6H142v14z"/><path d="M142 113.4v13.3l3.8.7c2 .3 5.6.6 7.8.6 2.3 0 7.9.7 12.5 1.5 45.1 7.8 82 35.8 97.2 73.5 3.5 8.8 6.7 23.3 6.7 30.7v5.3h28v-4.3c0-7.7-3-24.1-6.1-34.1-14.3-44.7-53.5-80.6-103.2-94.5-13-3.7-28.7-6.1-39.1-6.1H142v13.4z"/><path d="M122.5 147.5c-24.7 3.8-47.4 14.7-63.3 30.3-12.3 12.1-21.2 26.7-25.4 41.9-3 11.1-3 31.5 0 42.6 10.3 37.4 44.9 65.4 89.2 72.2 36.2 5.6 75.2-6.3 99.8-30.3 12.3-12.1 21.2-26.7 25.4-41.9 3-11.1 3-31.5 0-42.6-4.2-15.2-13.1-29.8-25.4-41.9-24.5-24-64.3-36-100.3-30.3zm-18.5 55c6.6 3.3 9.8 6.5 12.9 12.6 9.9 19.9-5.1 42.8-26.5 40.6-6.9-.7-12.3-3.6-17.3-9.3-4.3-4.9-7.1-12.1-7.1-18.4 0-11.9 8.5-23.3 20-27.1 3.8-1.3 14.2-.4 18 1.6zm95.7.3c8.6 4.4 15.3 15.4 15.3 25.2 0 9.7-6.7 20.8-15.2 25.1-17.7 9.1-38.8-4.6-38.8-25.1 0-12.3 8-23.5 19.4-27 4.8-1.5 14.6-.5 19.3 1.8z"/></svg>